<svg height='100px' width='100px'  fill="#ffffff" xmlns:sketch="http://www.bohemiancoding.com/sketch/ns" xmlns="http://www.w3.org/2000/svg" xmlns:xlink="http://www.w3.org/1999/xlink" version="1.1" x="0px" y="0px" viewBox="0 0 100 100" style="enable-background:new 0 0 100 100;" xml:space="preserve"><title>ic_add_f</title><desc>Created with Sketch.</desc><g sketch:type="MSPage"><g transform="translate(-8.000000, -8.000000)" sketch:type="MSArtboardGroup"><path sketch:type="MSShapeGroup" d="M58,9C31,9,9,31,9,58s22,49,49,49s49-22,49-49S85,9,58,9L58,9z M78,60.2H60.2    V78c0,1.2-1,2.2-2.2,2.2c-1.2,0-2.2-1-2.2-2.2V60.2H38c-1.2,0-2.2-1-2.2-2.2s1-2.2,2.2-2.2h17.8V38c0-1.2,1-2.2,2.2-2.2    c1.2,0,2.2,1,2.2,2.2v17.8H78c1.2,0,2.2,1,2.2,2.2S79.3,60.2,78,60.2L78,60.2z"></path></g></g></svg>